<svg height="800px" width="800px" viewBox="0 0 512 512" xmlns="http://www.w3.org/2000/svg">
	<circle style="fill:#FFD630;" cx="256" cy="256" r="256" />
	<path style="fill:#F5BE18;"
		d="M512,256c0-141.4-114.5-256-256-256S0,114.6,0,256h0l227.7,227.7c1.8,0,3.8,0,5.6,0l142.9-142.9l0.2,0.2l3.6,3.1l15.2,13L511,299.6C511,277,511,264.3,512,256z" />
	<path style="fill:#FFFFFF;"
		d="M402.3,147.8l1.5,107.8v1h-2.6c-1,0-1.6,0.7-1.6,1.5h2.5l-4.4,91.6c0,10.5,9.1,12.5,10.5,12.5c1.3,0,9.1-2.3,10.5-11.7c1.3-8.2-3.8-76.5-4.9-92.4h3.5c1,0,1.6-0.7,1.6-1.5h-3.6h-0.2H402.5z" />
	<path style="fill:#E84F4F;"
		d="M403.8,256.6h-2.6c-1,0-1.6,0.7-1.6,1.5h2.5l-4.4,91.6c0,10.5,9.1,12.5,10.5,12.5c1.3,0,9.1-2.3,10.5-11.7c1.3-8.2-3.8-76.5-4.9-92.4h3.5c1,0,1.6-0.7,1.6-1.5h-3.6h-0.2H403.9H403.8z" />
	<path style="fill:#FFFFFF;"
		d="M108.2,147.2c0,2.3,5.9,40.5,5.9,45.6c1,10,0,13.7-0.3,14.7c-1.3,3.6-13.8,11.7-13.8,14.7l-0.5,21.3c2.6,0.8,4.4,2.8,4.4,4.8c0,2.1-1.5,3.8-4.3,4.8l4.1,7.4c0,0,2.3,73.5,3.6,86.8c-2.8,14.2-9.4,19.8-10.9,19.8c-3.3-0.2-9.7-10.5-10.9-19.8l4.3-87.3l3.6-7.4c0,0-0.5-0.2-1.2-0.5c-2-1-3.3-2.6-3.3-4.4c0-2,1.6-3.8,4-4.6c0-1.5-0.3-21.3-0.5-21.6c-0.8-4.8-11.5-10.1-13.7-13.2c-2.1-3.3-1-15.3-1-15.3c0-4.9,5.9-45.6,5.9-45.6c1-1.3,1.5,0.3,1.5,0.3l-0.5,44.5h4.1c0-7.6,3.1-44.8,3.1-44.8c1-1.3,1.5,0,1.5,0l2,44.7h2.1l1-44.7c0,0,0.7-1.3,1.5,0L108.2,147.2z" />
	<path style="fill:#E84F4F;"
		d="M107.7,252l3.6,7.3c0,0,2.3,73.5,3.6,86.8c-2.8,14.2-9.4,19.8-10.9,19.8c-3.3-0.2-9.7-10.5-10.9-19.8l4.3-87.3l3.6-7.4h6.3L107.7,252L107.7,252z" />
	<circle style="fill:#FF873D;" cx="258.3" cy="256" r="131.8" />
	<circle style="fill:#FFFFFF;" cx="258.3" cy="256" r="125" />
	<circle style="fill:#FFE8D1;" cx="258.3" cy="256" r="98" />
</svg>
	