<svg width="35" height="35" viewBox="0 0 35 35" fill="none" xmlns="http://www.w3.org/2000/svg">
<path fill-rule="evenodd" clip-rule="evenodd" d="M23.3333 4.72852H11.6667C7.6396 4.72852 4.375 7.99311 4.375 12.0202V23.6868C4.375 27.7139 7.6396 30.9785 11.6667 30.9785H23.3333C27.3604 30.9785 30.625 27.7139 30.625 23.6868V12.0202C30.625 7.99311 27.3604 4.72852 23.3333 4.72852ZM28.0729 23.6868C28.0649 26.3011 25.9475 28.4184 23.3333 28.4264H11.6667C9.05239 28.4184 6.93509 26.3011 6.92708 23.6868V12.0202C6.93509 9.4059 9.05239 7.28861 11.6667 7.2806H23.3333C25.9475 7.28861 28.0649 9.4059 28.0729 12.0202V23.6868ZM24.4271 12.3848C25.2325 12.3848 25.8854 11.7318 25.8854 10.9264C25.8854 10.121 25.2325 9.4681 24.4271 9.4681C23.6216 9.4681 22.9688 10.121 22.9688 10.9264C22.9688 11.7318 23.6216 12.3848 24.4271 12.3848ZM17.5 11.291C13.8756 11.291 10.9375 14.2291 10.9375 17.8535C10.9375 21.4779 13.8756 24.416 17.5 24.416C21.1244 24.416 24.0625 21.4779 24.0625 17.8535C24.0664 16.1118 23.3762 14.4404 22.1446 13.2088C20.9131 11.9773 19.2417 11.2871 17.5 11.291ZM13.4896 17.8535C13.4896 20.0684 15.2851 21.8639 17.5 21.8639C19.7149 21.8639 21.5104 20.0684 21.5104 17.8535C21.5104 15.6386 19.7149 13.8431 17.5 13.8431C15.2851 13.8431 13.4896 15.6386 13.4896 17.8535Z" fill="white"/>
</svg>
