<svg width="35" height="35" viewBox="0 0 35 35" fill="none" xmlns="http://www.w3.org/2000/svg">
<path fill-rule="evenodd" clip-rule="evenodd" d="M6.5625 4.72852C5.35437 4.72852 4.375 5.70789 4.375 6.91602V28.791C4.375 29.9991 5.35437 30.9785 6.5625 30.9785H28.4375C29.6456 30.9785 30.625 29.9991 30.625 28.791V6.91602C30.625 5.70789 29.6456 4.72852 28.4375 4.72852H6.5625ZM12.4261 10.5658C12.4343 11.9603 11.3905 12.8196 10.1518 12.8135C8.98489 12.8073 7.96771 11.8783 7.97386 10.5679C7.98001 9.33535 8.95414 8.34482 10.2195 8.37353C11.5033 8.40225 12.4343 9.34356 12.4261 10.5658ZM17.9079 14.5894H14.2329H14.2309V27.0725H18.115V26.7813C18.115 26.2273 18.1145 25.6731 18.1141 25.1188C18.1129 23.6403 18.1116 22.1603 18.1192 20.6822C18.1213 20.3233 18.1376 19.9502 18.2299 19.6076C18.5764 18.3279 19.727 17.5015 21.0108 17.7046C21.8352 17.8337 22.3806 18.3116 22.6103 19.0889C22.7519 19.5748 22.8155 20.0977 22.8216 20.6044C22.8382 22.1321 22.8359 23.6599 22.8336 25.1878C22.8327 25.7271 22.8318 26.2666 22.8318 26.8059V27.0705H26.7283V26.7711C26.7283 26.1119 26.728 25.4529 26.7276 24.7939C26.7269 23.1467 26.726 21.4995 26.7304 19.8517C26.7324 19.1072 26.6525 18.3731 26.4699 17.6533C26.1972 16.5827 25.6333 15.6968 24.7166 15.057C24.0664 14.6017 23.3527 14.3085 22.555 14.2756C22.4642 14.2719 22.3726 14.2669 22.2806 14.2619C21.8727 14.2399 21.4581 14.2175 21.0681 14.2961C19.9525 14.5197 18.9723 15.0303 18.2319 15.9306C18.1459 16.0338 18.0618 16.1387 17.9362 16.2951L17.9079 16.3306V14.5894ZM8.28573 27.0766H12.1514V14.5975H8.28573V27.0766Z" fill="white"/>
</svg>
