<svg width="126" height="120" viewBox="0 0 126 120" fill="none" xmlns="http://www.w3.org/2000/svg">
<path d="M13 119.25C9.5625 119.25 6.61979 118.026 4.17188 115.578C1.72396 113.13 0.5 110.188 0.5 106.75V38C0.5 34.5625 1.72396 31.6198 4.17188 29.1719C6.61979 26.724 9.5625 25.5 13 25.5H38V13C38 9.5625 39.224 6.61979 41.6719 4.17188C44.1198 1.72396 47.0625 0.5 50.5 0.5H75.5C78.9375 0.5 81.8802 1.72396 84.3281 4.17188C86.776 6.61979 88 9.5625 88 13V25.5H113C116.438 25.5 119.38 26.724 121.828 29.1719C124.276 31.6198 125.5 34.5625 125.5 38V106.75C125.5 110.188 124.276 113.13 121.828 115.578C119.38 118.026 116.438 119.25 113 119.25H13ZM50.5 25.5H75.5V13H50.5V25.5ZM113 81.75H81.75V94.25H44.25V81.75H13V106.75H113V81.75ZM56.75 81.75H69.25V69.25H56.75V81.75ZM13 69.25H44.25V56.75H81.75V69.25H113V38H13V69.25Z" fill="black"/>
</svg>
