<svg width="35" height="35" viewBox="0 0 35 35" fill="none" xmlns="http://www.w3.org/2000/svg">
<path d="M12.5417 32.8125L9.77087 28.1458L4.52087 26.9792L5.03129 21.5833L1.45837 17.5L5.03129 13.4167L4.52087 8.02083L9.77087 6.85417L12.5417 2.1875L17.5 4.30208L22.4584 2.1875L25.2292 6.85417L30.4792 8.02083L29.9688 13.4167L33.5417 17.5L29.9688 21.5833L30.4792 26.9792L25.2292 28.1458L22.4584 32.8125L17.5 30.6979L12.5417 32.8125ZM13.7813 29.0938L17.5 27.4896L21.2917 29.0938L23.3334 25.5938L27.3438 24.6458L26.9792 20.5625L29.6771 17.5L26.9792 14.3646L27.3438 10.2812L23.3334 9.40625L21.2188 5.90625L17.5 7.51042L13.7084 5.90625L11.6667 9.40625L7.65629 10.2812L8.02087 14.3646L5.32296 17.5L8.02087 20.5625L7.65629 24.7188L11.6667 25.5938L13.7813 29.0938ZM15.9688 22.6771L24.2084 14.4375L22.1667 12.3229L15.9688 18.5208L12.8334 15.4583L10.7917 17.5L15.9688 22.6771Z" fill="#781393"/>
</svg>
