<svg width="100" height="126" viewBox="0 0 100 126" fill="none" xmlns="http://www.w3.org/2000/svg">
<path d="M43.4375 85.1875L78.75 49.875L69.8438 40.9688L43.4375 67.375L30.3125 54.25L21.4062 63.1562L43.4375 85.1875ZM50 125.5C35.5208 121.854 23.5677 113.547 14.1406 100.578C4.71354 87.6094 0 73.2083 0 57.375V19.25L50 0.5L100 19.25V57.375C100 73.2083 95.2865 87.6094 85.8594 100.578C76.4323 113.547 64.4792 121.854 50 125.5ZM50 112.375C60.8333 108.938 69.7917 102.062 76.875 91.75C83.9583 81.4375 87.5 69.9792 87.5 57.375V27.8438L50 13.7812L12.5 27.8438V57.375C12.5 69.9792 16.0417 81.4375 23.125 91.75C30.2083 102.062 39.1667 108.938 50 112.375Z" fill="black"/>
</svg>
