<svg width="140" height="56" viewBox="0 0 140 56" fill="none" xmlns="http://www.w3.org/2000/svg">
<path fill-rule="evenodd" clip-rule="evenodd" d="M38.5707 16.7499L27.0612 39.2499H16.2505L21.0672 29.9249H20.8511C16.8774 35.0834 10.9484 38.4793 2.50049 39.2499V30.054C2.50049 30.054 7.9048 29.7348 11.0818 26.3946H2.50049V16.7501H12.145V24.6825L12.3615 24.6816L16.3026 16.7501H23.5965V24.6322L23.8129 24.6319L27.9019 16.7499H38.5707Z" fill="black"/>
<path d="M101.333 36.7664H104.44V18.9374H101.333V36.7664Z" fill="black"/>
<path fill-rule="evenodd" clip-rule="evenodd" d="M84.2096 36.5844C84.8846 36.865 85.5711 37.0054 86.2689 37.0054C87.4218 37.0054 88.4534 36.7247 89.3637 36.1634C90.2738 35.6021 90.9793 34.8285 91.4799 33.8424C91.9806 32.8487 92.2308 31.7222 92.2308 30.4631C92.2308 29.204 91.9729 28.0776 91.4572 27.084C90.9413 26.0903 90.2246 25.3204 89.3067 24.7743C88.3889 24.2206 87.3459 23.9475 86.1778 23.9551C85.4346 23.9551 84.7216 24.0992 84.0388 24.3874C83.3562 24.6757 82.7873 25.0853 82.3322 25.6162C82.2971 25.6567 82.2629 25.6975 82.2298 25.7387V18.9489H79.1123V36.7665H82.2071L82.2008 35.102C82.2808 35.2001 82.3664 35.296 82.4573 35.3897C82.9503 35.898 83.5344 36.2961 84.2096 36.5844ZM87.3953 33.7059C86.8871 34.0169 86.3068 34.1724 85.6544 34.1724C85.0097 34.1724 84.4181 34.013 83.8796 33.6945C83.3409 33.3682 82.9124 32.9246 82.5938 32.3632C82.2828 31.802 82.1273 31.1647 82.1273 30.4517C82.1198 29.7387 82.2714 29.1016 82.5824 28.5403C82.9011 27.9714 83.3296 27.5315 83.8682 27.2205C84.4067 26.9019 85.0022 26.7464 85.6544 26.754C86.3068 26.7464 86.8871 26.8981 87.3953 27.2091C87.9111 27.5125 88.3054 27.9487 88.5786 28.5176C88.8592 29.0789 88.9996 29.7236 88.9996 30.4517C88.9996 31.18 88.8592 31.8247 88.5786 32.386C88.3054 32.9474 87.9111 33.3872 87.3953 33.7059Z" fill="black"/>
<path d="M43.0703 20.0183H46.6202L49.7957 31.6153L53.1738 20.0183H56.1321L59.7957 31.3825L62.8449 20.0183H66.0989L61.2976 36.7664H58.2369L54.5114 25.6644L51.0917 36.7664H47.9969L43.0703 20.0183Z" fill="black"/>
<path fill-rule="evenodd" clip-rule="evenodd" d="M71.3418 37.0621C70.1053 37.0698 68.9903 36.7966 67.9966 36.243C67.0105 35.6816 66.2331 34.9041 65.6641 33.9105C65.1029 32.9169 64.8223 31.7829 64.8223 30.5085C64.8223 29.2721 65.1105 28.1534 65.687 27.1521C66.2634 26.1509 67.0446 25.3696 68.0308 24.8083C69.0169 24.247 70.1166 23.9664 71.3303 23.9664C72.6956 23.9664 73.8903 24.2698 74.9143 24.8766C75.9459 25.4834 76.7158 26.3443 77.224 27.4593C77.7398 28.5668 77.9256 29.8373 77.7815 31.2709H68.0356C68.0629 31.842 68.2054 32.3616 68.4631 32.8296C68.7514 33.3454 69.1534 33.7474 69.6691 34.0356C70.185 34.3239 70.7614 34.468 71.3986 34.468C71.884 34.4604 72.3354 34.377 72.7525 34.2178C73.1698 34.0509 73.5224 33.8271 73.8106 33.5464C74.1065 33.2658 74.3151 32.9473 74.4365 32.5908H77.6905C77.4933 33.463 77.0989 34.2405 76.5073 34.9231C75.9155 35.5983 75.1723 36.1254 74.2771 36.5046C73.3821 36.8839 72.4036 37.0698 71.3418 37.0621ZM68.4745 28.142C68.2928 28.459 68.1668 28.8003 68.0966 29.166H74.557C74.5101 28.704 74.3675 28.283 74.1293 27.9031C73.8561 27.4555 73.4845 27.1104 73.0143 26.8677C72.544 26.6174 72.013 26.4922 71.4214 26.4922C70.7918 26.4922 70.2191 26.6363 69.7033 26.9246C69.1875 27.2128 68.7779 27.6186 68.4745 28.142Z" fill="black"/>
<path d="M94.5181 24.2281C94.5181 23.2117 94.7494 22.309 95.2121 21.5202C95.6747 20.7237 96.3234 20.1055 97.1577 19.6656C97.9996 19.2181 98.982 18.9867 100.104 18.9716V21.7363C99.5811 21.7439 99.1336 21.8539 98.762 22.0663C98.3979 22.2711 98.1173 22.5707 97.92 22.9651C97.7385 23.3283 97.6405 23.7492 97.6261 24.2281H100.036V26.8563H97.6242V36.7664H94.5181V26.8563H92.5156V24.2281H94.5181Z" fill="black"/>
<path fill-rule="evenodd" clip-rule="evenodd" d="M112.335 37.0394C111.069 37.0394 109.935 36.7625 108.933 36.2089C107.94 35.6475 107.158 34.8739 106.59 33.8877C106.028 32.8941 105.748 31.7677 105.748 30.5085C105.748 29.2419 106.028 28.1116 106.59 27.118C107.158 26.1167 107.94 25.3393 108.933 24.7855C109.935 24.2318 111.069 23.955 112.335 23.955C113.61 23.955 114.747 24.2318 115.749 24.7855C116.757 25.3393 117.543 26.1129 118.104 27.1066C118.665 28.1003 118.95 29.2342 118.957 30.5085C118.95 31.7677 118.665 32.8941 118.104 33.8877C117.55 34.8739 116.769 35.6475 115.76 36.2089C114.751 36.7625 113.61 37.0394 112.335 37.0394ZM112.335 34.1836C113.003 34.1836 113.594 34.0319 114.11 33.7285C114.626 33.4175 115.024 32.9851 115.305 32.4314C115.586 31.8701 115.726 31.2291 115.726 30.5085C115.726 29.7804 115.586 29.1356 115.305 28.5743C115.024 28.013 114.626 27.5807 114.11 27.2773C113.594 26.9663 113.003 26.8108 112.335 26.8108C111.675 26.8108 111.088 26.9663 110.572 27.2773C110.064 27.5807 109.669 28.013 109.388 28.5743C109.108 29.1356 108.971 29.7804 108.979 30.5085C108.979 31.2291 109.119 31.8701 109.4 32.4314C109.688 32.9851 110.082 33.4175 110.583 33.7285C111.091 34.0319 111.675 34.1836 112.335 34.1836Z" fill="black"/>
<path d="M122.314 24.228H118.855L122.598 36.7664H125.625L128.087 28.7581L130.744 36.7664H133.725L137.48 24.228H134.352L132.222 32.0324L129.868 24.228H126.842L124.5 32.2042L122.314 24.228Z" fill="black"/>
</svg>
