<svg width="35" height="36" viewBox="0 0 35 36" fill="none" xmlns="http://www.w3.org/2000/svg">
<circle cx="17.5" cy="17.5" r="17" fill="white" stroke="black"/>
<path d="M17.5 12.2806C17.0486 12.2806 16.6643 12.0677 16.347 11.6419C16.0297 11.2161 15.871 10.7004 15.871 10.0947C15.871 9.489 16.0297 8.97326 16.347 8.54746C16.6643 8.12165 17.0486 7.90875 17.5 7.90875C17.9514 7.90875 18.3357 8.12165 18.653 8.54746C18.9703 8.97326 19.129 9.489 19.129 10.0947C19.129 10.7004 18.9703 11.2161 18.653 11.6419C18.3357 12.0677 17.9514 12.2806 17.5 12.2806ZM15.2093 30.0868V15.605C14.31 15.5063 13.4157 15.364 12.5266 15.1781C11.6375 14.9921 10.7953 14.7625 10 14.4893L10.3224 12.7133C11.4525 13.1049 12.6236 13.3888 13.8357 13.5648C15.0478 13.7409 16.2692 13.829 17.5 13.829C18.7308 13.829 19.9522 13.7409 21.1643 13.5648C22.3764 13.3888 23.5475 13.1049 24.6776 12.7133L25 14.4893C24.2047 14.7625 23.3625 14.9921 22.4734 15.1781C21.5843 15.364 20.69 15.5063 19.7907 15.605V30.0868H18.4672V22.9598H16.5328V30.0868H15.2093ZM13.9706 35.9387C13.7545 35.9387 13.5704 35.8366 13.4183 35.6324C13.2661 35.4283 13.19 35.1812 13.19 34.8913C13.19 34.6014 13.2661 34.3543 13.4183 34.1501C13.5704 33.946 13.7545 33.8439 13.9706 33.8439C14.1866 33.8439 14.3707 33.946 14.5229 34.1501C14.675 34.3543 14.7511 34.6014 14.7511 34.8913C14.7511 35.1812 14.675 35.4283 14.5229 35.6324C14.3707 35.8366 14.1866 35.9387 13.9706 35.9387ZM17.5 35.9387C17.2839 35.9387 17.0998 35.8366 16.9477 35.6324C16.7955 35.4283 16.7195 35.1812 16.7195 34.8913C16.7195 34.6014 16.7955 34.3543 16.9477 34.1501C17.0998 33.946 17.2839 33.8439 17.5 33.8439C17.7161 33.8439 17.9002 33.946 18.0523 34.1501C18.2045 34.3543 18.2805 34.6014 18.2805 34.8913C18.2805 35.1812 18.2045 35.4283 18.0523 35.6324C17.9002 35.8366 17.7161 35.9387 17.5 35.9387ZM21.0294 35.9387C20.8134 35.9387 20.6293 35.8366 20.4771 35.6324C20.325 35.4283 20.2489 35.1812 20.2489 34.8913C20.2489 34.6014 20.325 34.3543 20.4771 34.1501C20.6293 33.946 20.8134 33.8439 21.0294 33.8439C21.2455 33.8439 21.4296 33.946 21.5817 34.1501C21.7339 34.3543 21.81 34.6014 21.81 34.8913C21.81 35.1812 21.7339 35.4283 21.5817 35.6324C21.4296 35.8366 21.2455 35.9387 21.0294 35.9387Z" fill="black"/>
</svg>
