<svg width="35" height="35" viewBox="0 0 35 35" fill="none" xmlns="http://www.w3.org/2000/svg">
<path d="M31.4898 10.5047C31.3237 9.88842 30.9991 9.32638 30.5482 8.87454C30.0974 8.42269 29.5361 8.0968 28.9202 7.92929C26.6365 7.30221 17.5 7.292 17.5 7.292C17.5 7.292 8.36499 7.28179 6.07978 7.88117C5.46426 8.05638 4.90411 8.38689 4.45311 8.84095C4.00211 9.29501 3.67541 9.85739 3.50437 10.4741C2.90208 12.7578 2.89624 17.4945 2.89624 17.4945C2.89624 17.4945 2.89041 22.2545 3.48833 24.5149C3.82374 25.7647 4.80812 26.752 6.05937 27.0889C8.36645 27.716 17.4781 27.7262 17.4781 27.7262C17.4781 27.7262 26.6146 27.7364 28.8983 27.1385C29.5145 26.9713 30.0763 26.6461 30.5282 26.1952C30.9802 25.7443 31.3066 25.1832 31.4752 24.5674C32.079 22.2851 32.0833 17.5499 32.0833 17.5499C32.0833 17.5499 32.1125 12.7885 31.4898 10.5047ZM14.5775 21.8826L14.5848 13.1326L22.1783 17.5149L14.5775 21.8826Z" fill="white"/>
</svg>
